<mxfile host="app.diagrams.net" modified="2022-01-28T12:19:13.287Z" agent="5.0 (Windows NT 10.0; Win64; x64) AppleWebKit/537.36 (KHTML, like Gecko) Chrome/97.0.4692.99 Safari/537.36 Edg/97.0.1072.69" etag="fGk4w5YcJmEgW0qc-0Yq" version="16.5.0" type="github">
  <diagram name="Page-1" id="2cc2dc42-3aac-f2a9-1cec-7a8b7cbee084">
    <mxGraphModel dx="765" dy="1382" grid="1" gridSize="10" guides="1" tooltips="1" connect="1" arrows="1" fold="1" page="1" pageScale="1" pageWidth="1100" pageHeight="850" background="none" math="0" shadow="0">
      <root>
        <mxCell id="0" />
        <mxCell id="1" parent="0" />
        <mxCell id="7026571954dc6520-1" value="" style="strokeWidth=1;shadow=0;dashed=0;align=center;html=1;shape=mxgraph.mockup.containers.browserWindow;rSize=0;strokeColor=#666666;mainText=,;recursiveResize=0;rounded=0;labelBackgroundColor=none;fontFamily=Verdana;fontSize=12" parent="1" vertex="1">
          <mxGeometry x="20" y="-40" width="1050" height="820" as="geometry" />
        </mxCell>
        <mxCell id="7026571954dc6520-2" value="Page 1" style="strokeWidth=1;shadow=0;dashed=0;align=center;html=1;shape=mxgraph.mockup.containers.anchor;fontSize=17;fontColor=#666666;align=left;" parent="7026571954dc6520-1" vertex="1">
          <mxGeometry x="60" y="12" width="110" height="26" as="geometry" />
        </mxCell>
        <mxCell id="7026571954dc6520-3" value="https://www.prefall/medico_crear_paciente" style="strokeWidth=1;shadow=0;dashed=0;align=center;html=1;shape=mxgraph.mockup.containers.anchor;rSize=0;fontSize=17;fontColor=#666666;align=left;" parent="7026571954dc6520-1" vertex="1">
          <mxGeometry x="130" y="60" width="250" height="26" as="geometry" />
        </mxCell>
        <mxCell id="7026571954dc6520-4" value="Crear nuevo paciente" style="text;html=1;points=[];align=left;verticalAlign=top;spacingTop=-4;fontSize=30;fontFamily=Verdana" parent="7026571954dc6520-1" vertex="1">
          <mxGeometry x="30" y="140" width="340" height="50" as="geometry" />
        </mxCell>
        <mxCell id="gIcC4kHjiw92RsgYredK-1" value="Nombre" style="text;html=1;strokeColor=none;fillColor=none;align=center;verticalAlign=middle;whiteSpace=wrap;rounded=0;" parent="7026571954dc6520-1" vertex="1">
          <mxGeometry x="30" y="210" width="50" height="30" as="geometry" />
        </mxCell>
        <mxCell id="gIcC4kHjiw92RsgYredK-2" value="" style="rounded=0;whiteSpace=wrap;html=1;" parent="7026571954dc6520-1" vertex="1">
          <mxGeometry x="30" y="240" width="120" height="20" as="geometry" />
        </mxCell>
        <mxCell id="gIcC4kHjiw92RsgYredK-3" value="DNI" style="text;html=1;strokeColor=none;fillColor=none;align=center;verticalAlign=middle;whiteSpace=wrap;rounded=0;" parent="7026571954dc6520-1" vertex="1">
          <mxGeometry x="30" y="270" width="30" height="30" as="geometry" />
        </mxCell>
        <mxCell id="gIcC4kHjiw92RsgYredK-4" value="" style="rounded=0;whiteSpace=wrap;html=1;" parent="7026571954dc6520-1" vertex="1">
          <mxGeometry x="30" y="300" width="120" height="20" as="geometry" />
        </mxCell>
        <mxCell id="gIcC4kHjiw92RsgYredK-8" value="Guardar" style="strokeWidth=1;shadow=0;dashed=0;align=center;html=1;shape=mxgraph.mockup.buttons.button;strokeColor=#666666;fontColor=#ffffff;mainText=;buttonStyle=round;fontSize=17;fontStyle=1;fillColor=#008cff;whiteSpace=wrap;" parent="7026571954dc6520-1" vertex="1">
          <mxGeometry x="20" y="360" width="150" height="50" as="geometry" />
        </mxCell>
      </root>
    </mxGraphModel>
  </diagram>
</mxfile>
